<svg width="160" height="160" viewBox="0 0 160 160" fill="none" xmlns="http://www.w3.org/2000/svg">
<path fill-rule="evenodd" clip-rule="evenodd" d="M25.6251 49.2094L78.2189 27.2762C81.4971 25.9093 85.2981 27.4726 86.665 30.7508L114.714 98.0121C116.081 101.29 114.518 105.091 111.24 106.458L58.646 128.391C55.3678 129.758 51.5674 128.195 50.1999 124.916L22.1499 57.6549C20.783 54.3767 22.3463 50.5763 25.6245 49.2088L25.6251 49.2094Z" fill="#FEFEFE"/>
<path d="M88.4675 32.5376L90.6742 31.6172C93.9525 30.2503 97.7534 31.8136 99.1204 35.0918L127.17 102.353C128.537 105.631 126.974 109.432 123.696 110.799L71.102 132.732C67.8238 134.099 64.0234 132.536 62.6558 129.258L62.1294 127.996L111.616 107.358C115.39 105.784 117.189 101.41 115.616 97.6367L88.4675 32.5382V32.5376Z" fill="#E2E4E9"/>
<path d="M23.2235 59.4919C27.8785 57.5509 32.9591 59.0689 34.7032 62.8773C35.1485 63.8683 34.819 64.8729 33.7903 65.3021C32.8972 65.6743 31.9056 65.3349 31.5761 64.544C30.3813 61.6801 27.0282 61.0849 24.3525 62.201C21.4032 63.431 19.8498 66.4355 20.8736 68.8912C21.898 71.3476 24.8815 72.4253 27.8135 71.2361L28.9432 73.9446C24.2219 75.8794 19.2819 74.1948 17.6338 70.2427C15.9857 66.2906 18.4848 61.4683 23.2235 59.4925V59.4919Z" fill="#868C98"/>
<path d="M33.9896 85.3085C38.644 83.3674 43.7252 84.8855 45.4693 88.6939C45.9146 89.6848 45.5851 90.6894 44.5564 91.118C43.6633 91.4909 42.6723 91.1509 42.3422 90.36C41.1481 87.4961 37.7943 86.9009 35.1187 88.0163C32.1693 89.2463 30.6159 92.2508 31.6397 94.7066C32.6642 97.1629 35.6482 98.2406 38.5796 97.0515L39.7093 99.7599C34.988 101.695 30.048 100.01 28.3999 96.058C26.7518 92.1059 29.2509 87.2842 33.9896 85.3079V85.3085Z" fill="#868C98"/>
<path d="M44.7324 111.069C49.3874 109.128 54.468 110.646 56.2121 114.454C56.6568 115.445 56.3273 116.45 55.2992 116.879C54.4061 117.251 53.4151 116.912 53.085 116.121C51.8909 113.257 48.5371 112.662 45.8615 113.777C42.9121 115.007 41.3588 118.012 42.3825 120.467C43.407 122.924 46.2349 124.066 49.1663 122.877L50.4819 125.508C45.7605 127.443 40.7902 125.771 39.1421 121.819C37.494 117.867 39.9931 113.045 44.7318 111.069H44.7324Z" fill="#868C98"/>
<path d="M92.3524 65.2608L73.0609 73.3059C72.6949 73.4585 72.528 73.8934 72.6881 74.2773L73.9542 77.3133C74.1143 77.6972 74.5407 77.8847 74.9067 77.7321L94.1982 69.687C94.5642 69.5344 94.7311 69.0994 94.571 68.7155L93.3049 65.6796C93.1449 65.2957 92.7184 65.1082 92.3524 65.2608Z" fill="#E2E4E9"/>
<path d="M64.0585 90.6516C69.2308 88.4946 71.6751 82.5531 69.5182 77.3809C67.3612 72.2087 61.4197 69.7643 56.2475 71.9213C51.0753 74.0782 48.6309 80.0197 50.7878 85.1919C52.9448 90.3642 58.8863 92.8085 64.0585 90.6516Z" fill="#868C98"/>
<path d="M63.6833 89.7519C68.3587 87.8022 70.5682 82.4315 68.6185 77.7561C66.6687 73.0808 61.2981 70.8713 56.6227 72.821C51.9473 74.7707 49.7378 80.1414 51.6875 84.8168C53.6373 89.4921 59.008 91.7017 63.6833 89.7519Z" fill="#FEFEFE"/>
<path d="M82.5831 41.8338L63.2916 49.8789C62.9256 50.0315 62.7587 50.4664 62.9188 50.8503L64.1849 53.8863C64.345 54.2702 64.7714 54.4577 65.1374 54.3051L84.429 46.26C84.7949 46.1074 84.9618 45.6724 84.8017 45.2885L83.5357 42.2526C83.3756 41.8687 82.9491 41.6812 82.5831 41.8338Z" fill="#E2E4E9"/>
<path d="M54.289 67.2251C59.4612 65.0682 61.9056 59.1267 59.7486 53.9545C57.5917 48.7822 51.6502 46.3379 46.478 48.4948C41.3057 50.6518 38.8614 56.5933 41.0183 61.7655C43.1753 66.9377 49.1168 69.3821 54.289 67.2251Z" fill="#868C98"/>
<path d="M53.9138 66.3254C58.5892 64.3757 60.7987 59.005 58.849 54.3296C56.8992 49.6543 51.5285 47.4447 46.8532 49.3945C42.1778 51.3442 39.9683 56.7149 41.918 61.3903C43.8678 66.0656 49.2385 68.2752 53.9138 66.3254Z" fill="#FEFEFE"/>
<path d="M50.9684 59.575C52.9089 58.6472 54.928 58.8045 55.5467 59.9125C55.5628 59.9323 55.5758 59.9546 55.5876 59.9782C55.6687 60.1479 55.6025 60.3479 55.4396 60.4253C55.2773 60.5027 55.0797 60.4291 54.9986 60.2594C54.9899 60.242 54.9831 60.2241 54.9781 60.2055H54.9775C54.505 59.3799 52.8513 59.3303 51.2236 60.1082C49.6003 60.8843 48.6013 62.1979 48.94 63.0842C48.9524 63.1016 48.963 63.1195 48.9729 63.1394C49.054 63.3091 48.9877 63.5091 48.8249 63.5865C48.6626 63.6639 48.465 63.5903 48.3839 63.4206C48.3758 63.4026 48.369 63.3852 48.3634 63.3667C47.8704 62.188 49.0175 60.5059 50.9684 59.5731V59.575Z" fill="#868C98"/>
<path d="M53.2618 54.9915C54.0641 54.6569 54.4433 53.7352 54.1087 52.9328C53.7741 52.1304 52.8524 51.7512 52.05 52.0858C51.2476 52.4205 50.8684 53.3422 51.203 54.1446C51.5377 54.9469 52.4594 55.3261 53.2618 54.9915Z" fill="#868C98"/>
<path d="M46.3206 57.8865C47.123 57.5519 47.5022 56.6302 47.1676 55.8278C46.833 55.0254 45.9112 54.6462 45.1089 54.9808C44.3065 55.3154 43.9273 56.2371 44.2619 57.0395C44.5965 57.8419 45.5182 58.2211 46.3206 57.8865Z" fill="#868C98"/>
<path d="M102.122 88.6873L82.8302 96.7324C82.4642 96.885 82.2973 97.3199 82.4574 97.7038L83.7234 100.74C83.8835 101.124 84.31 101.311 84.676 101.159L103.968 93.1135C104.334 92.9609 104.5 92.526 104.34 92.1421L103.074 89.1061C102.914 88.7222 102.488 88.5347 102.122 88.6873Z" fill="#E2E4E9"/>
<path d="M73.8283 114.079C79.0005 111.922 81.4449 105.98 79.2879 100.808C77.131 95.6357 71.1895 93.1914 66.0173 95.3483C60.845 97.5053 58.4007 103.447 60.5576 108.619C62.7146 113.791 68.6561 116.236 73.8283 114.079Z" fill="#868C98"/>
<path d="M73.4531 113.179C78.1285 111.229 80.338 105.859 78.3883 101.183C76.4385 96.5079 71.0678 94.2983 66.3925 96.2481C61.7171 98.1978 59.5076 103.569 61.4573 108.244C63.4071 112.919 68.7778 115.129 73.4531 113.179Z" fill="#FEFEFE"/>
<path d="M71.6117 109.078C73.6364 108.352 74.9451 106.807 74.5933 105.588C74.5902 105.563 74.584 105.538 74.5753 105.512C74.5121 105.335 74.3232 105.242 74.1535 105.302C73.9838 105.363 73.8977 105.556 73.9609 105.732C73.9677 105.751 73.9751 105.768 73.9844 105.784H73.9838C74.2371 106.701 73.1093 107.911 71.411 108.519C69.7171 109.127 68.0814 108.912 67.6893 108.047C67.6856 108.027 67.6806 108.006 67.6732 107.986C67.61 107.808 67.4211 107.715 67.2514 107.776C67.0817 107.836 66.9956 108.029 67.0588 108.205C67.0656 108.224 67.0737 108.241 67.0823 108.257C67.5729 109.437 69.5746 109.806 71.6105 109.076L71.6117 109.078Z" fill="#868C98"/>
<path d="M72.8006 101.845C73.603 101.51 73.9822 100.589 73.6475 99.7864C73.3129 98.984 72.3912 98.6048 71.5888 98.9394C70.7864 99.274 70.4072 100.196 70.7419 100.998C71.0765 101.801 71.9982 102.18 72.8006 101.845Z" fill="#868C98"/>
<path d="M65.8594 104.74C66.6618 104.405 67.041 103.484 66.7064 102.681C66.3718 101.879 65.4501 101.5 64.6477 101.834C63.8453 102.169 63.4661 103.091 63.8007 103.893C64.1353 104.695 65.057 105.075 65.8594 104.74Z" fill="#868C98"/>
<path d="M63.4229 79.3582C64.2253 79.0235 64.6045 78.1018 64.2699 77.2995C63.9352 76.4971 63.0135 76.1179 62.2111 76.4525C61.4088 76.7871 61.0296 77.7088 61.3642 78.5112C61.6988 79.3136 62.6205 79.6928 63.4229 79.3582Z" fill="#868C98"/>
<path d="M56.4817 82.2524C57.2841 81.9178 57.6633 80.9961 57.3287 80.1937C56.9941 79.3914 56.0724 79.0122 55.27 79.3468C54.4676 79.6814 54.0884 80.6031 54.423 81.4055C54.7576 82.2079 55.6793 82.5871 56.4817 82.2524Z" fill="#868C98"/>
<path d="M63.1652 83.1673L59.3705 84.7498C58.7782 84.9968 58.3648 85.357 58.4471 85.5543C58.5294 85.7516 59.0762 85.7113 59.6684 85.4643L63.4632 83.8818C64.0554 83.6348 64.4689 83.2746 64.3866 83.0773C64.3043 82.88 63.7575 82.9203 63.1652 83.1673Z" fill="#868C98"/>
<path d="M79.965 80.7203L119.031 64.4288C122.036 63.1758 125.519 64.609 126.771 67.6135L139.606 98.3892L139.57 98.3769L97.9771 108.406C110.924 112.055 112.733 122.782 99.85 129.405C99.2294 129.647 98.2608 129.872 98.07 129.873C95.7288 129.896 93.4862 128.52 92.533 126.235L76.7803 88.461C75.5273 85.4565 76.9605 81.9732 79.9644 80.7203H79.965Z" fill="#FEFEFE"/>
<path fill-rule="evenodd" clip-rule="evenodd" d="M100.631 130.097C100.519 130.156 100.407 130.215 100.296 130.272L100.252 130.295L100.205 130.313C100.048 130.374 99.8325 130.449 99.594 130.523H99.5928C99.0682 130.686 98.4346 130.845 98.0797 130.848C95.279 130.876 92.7149 129.205 91.6328 126.61L91.1417 125.432L71.4759 133.633C67.7003 135.207 63.329 133.409 61.7546 129.633L61.2281 128.371L59.0213 129.291C55.2476 130.865 50.8731 129.065 49.2999 125.292L21.25 58.0309C19.6762 54.2572 21.476 49.8827 25.2498 48.3095L77.8435 26.3763C81.6172 24.8025 85.9918 26.6024 87.5649 30.3755L88.0914 31.6377L90.2982 30.718C94.0731 29.1436 98.4451 30.9422 100.02 34.7171L113.015 65.8806L118.655 63.5283C122.157 62.0685 126.211 63.7364 127.671 67.2376L140.337 97.6089C143.714 98.8247 147.288 101.368 147.455 105.263C147.644 109.687 143.328 112.589 139.707 114.032L100.631 130.097ZM99.8505 129.404C112.733 122.781 110.924 112.054 97.9775 108.405L138.755 98.5732C139.271 98.4487 139.459 98.3521 139.996 98.5218C148.359 101.169 149.255 109.178 139.341 113.128L99.8511 129.405L99.8505 129.404ZM99.5389 128.691C103.355 126.343 108.199 122.799 107.631 117.902C107.083 113.182 101.761 110.485 97.7124 109.344L94.1208 108.332L139.218 97.4584L126.772 67.6135C125.519 64.6091 122.036 63.1759 119.032 64.4288L113.392 66.7811L112.491 67.1565L104.325 70.5623L103.424 70.9376L79.9654 80.7203C76.961 81.9733 75.5284 85.4559 76.7813 88.461L88.2797 116.034L88.655 116.935L91.6669 124.157L92.0422 125.057L92.5334 126.236C93.4377 128.404 95.5038 129.755 97.713 129.867L99.5389 128.692V128.691ZM90.7664 124.532L87.7544 117.309L62.1286 127.996L62.6551 129.259C64.022 132.537 67.8224 134.101 71.1012 132.733L90.767 124.532L90.7664 124.532ZM87.3791 116.409L75.8802 88.8357C74.4204 85.3345 76.0876 81.2796 79.5895 79.8198L103.048 70.0371L87.1915 32.013L86.665 30.7508C85.2981 27.4726 81.4971 25.9087 78.2189 27.2762L25.6251 49.2094C22.3469 50.5763 20.783 54.3773 22.1505 57.6556L50.2005 124.917C51.5674 128.195 55.3684 129.759 58.6466 128.391L60.8534 127.472L87.3797 116.409L87.3791 116.409ZM103.949 69.6611L112.116 66.2553L99.1196 35.0919C97.7527 31.8136 93.9523 30.2503 90.6735 31.6173L88.4667 32.5376L103.948 69.6611H103.949Z" fill="#868C98"/>
<path d="M100.148 99.3127L119.297 91.3268C119.565 91.2153 119.875 91.3429 119.986 91.6105C120.098 91.878 119.97 92.1883 119.703 92.2998L100.554 100.285C100.287 100.397 99.9763 100.269 99.8648 100.002C99.7533 99.7345 99.8809 99.4242 100.148 99.3127ZM90.3862 94.6391L92.2913 89.7381L87.4696 87.6435C87.2033 87.5276 87.0807 87.2161 87.1965 86.9498C87.3117 86.6835 87.6238 86.5608 87.8895 86.6767L92.6741 88.7552L94.5637 83.8933C94.6684 83.6232 94.9756 83.4882 95.2456 83.5935C95.5163 83.6982 95.6513 84.0054 95.546 84.2754L93.6409 89.1758L98.4632 91.271C98.7289 91.3869 98.8521 91.6984 98.7363 91.9641C98.6205 92.2298 98.309 92.3531 98.0426 92.2372L93.2587 90.1587L91.3685 95.0206C91.2632 95.2913 90.9566 95.4263 90.6866 95.321C90.4165 95.2157 90.2815 94.9091 90.3862 94.6391ZM113.51 84.9957L115.415 80.0948L110.593 77.9995C110.328 77.8837 110.204 77.5721 110.32 77.3064C110.436 77.0401 110.747 76.9175 111.014 77.0327L115.798 79.1112L117.687 74.2493C117.793 73.9793 118.099 73.8436 118.37 73.9489C118.64 74.0536 118.775 74.3608 118.67 74.6308L116.765 79.5312L121.587 81.6264C121.854 81.7423 121.976 82.0538 121.861 82.3195C121.745 82.5852 121.433 82.7085 121.167 82.5926L116.383 80.5141L114.493 85.376C114.388 85.6461 114.081 85.7811 113.811 85.6764C113.54 85.5717 113.406 85.2645 113.51 84.9945L113.51 84.9957Z" fill="#868C98"/>
<path d="M99.85 129.404C112.733 122.781 110.923 112.054 97.9771 108.406L138.754 98.5733C139.27 98.4488 139.458 98.3521 139.996 98.5219C148.358 101.169 149.254 109.178 139.34 113.128L99.8506 129.405L99.85 129.404Z" fill="#CDD0D5"/>
<path fill-rule="evenodd" clip-rule="evenodd" d="M122.661 38.8606C123.542 39.2453 124.405 39.6695 125.285 40.0504C125.6 40.1873 126.059 40.3867 126.412 40.37C126.762 40.3533 127.193 40.113 127.491 39.947C128.321 39.4856 129.131 38.9833 129.962 38.5194L131.528 37.6442L130.859 39.3084C130.514 40.1638 130.128 41.0036 129.788 41.8577C129.664 42.168 129.492 42.6015 129.525 42.9434C129.56 43.3014 129.831 43.7523 130.011 44.0545C130.518 44.9031 131.063 45.7311 131.573 46.5809L132.591 48.2798L130.776 47.4864C129.896 47.1018 129.032 46.6775 128.153 46.2966C127.837 46.1597 127.379 45.9603 127.027 45.977C126.677 45.9938 126.246 46.2341 125.947 46.4001C125.118 46.8615 124.308 47.3638 123.476 47.8283L121.91 48.7034L122.58 47.0392C122.925 46.1839 123.31 45.344 123.651 44.4899C123.775 44.179 123.947 43.7461 123.914 43.4042C123.878 43.0462 123.608 42.5954 123.427 42.2931C122.92 41.4446 122.375 40.6165 121.866 39.7661L120.847 38.0673L122.662 38.8606H122.661Z" fill="#868C98"/>
<path fill-rule="evenodd" clip-rule="evenodd" d="M122.407 39.441C127.237 41.5511 125.713 41.618 130.27 39.0718C128.379 43.769 128.238 42.251 131.029 46.9067C126.199 44.7965 127.723 44.7296 123.166 47.2758C125.057 42.5786 125.198 44.0967 122.407 39.441Z" fill="#FEFEFE"/>
<path fill-rule="evenodd" clip-rule="evenodd" d="M13.7509 97.0929C14.631 97.4776 15.495 97.9018 16.3739 98.2827C16.6897 98.4196 17.148 98.619 17.5005 98.6023C17.8504 98.5856 18.2808 98.3453 18.58 98.1793C19.4099 97.7179 20.22 97.2156 21.0506 96.7511L22.6169 95.8759L21.9468 97.5401C21.6024 98.3954 21.2166 99.2353 20.8759 100.089C20.7521 100.4 20.5799 100.833 20.6133 101.175C20.648 101.533 20.9193 101.984 21.1001 102.286C21.6068 103.134 22.1518 103.962 22.6615 104.813L23.6804 106.511L21.865 105.718C20.9849 105.333 20.1209 104.909 19.2421 104.528C18.9268 104.391 18.4679 104.192 18.1155 104.209C17.7655 104.225 17.3345 104.466 17.0359 104.632C16.206 105.093 15.3965 105.595 14.5653 106.06L12.999 106.935L13.6685 105.271C14.0129 104.416 14.3987 103.576 14.7394 102.722C14.8632 102.411 15.0354 101.978 15.002 101.636C14.9673 101.278 14.696 100.827 14.5158 100.525C14.0092 99.6763 13.4641 98.8482 12.9544 97.9978L11.9355 96.2989L13.7509 97.0923V97.0929Z" fill="#868C98"/>
<path fill-rule="evenodd" clip-rule="evenodd" d="M13.4971 97.6733C18.3268 99.7834 16.8026 99.8503 21.3592 97.3041C19.4689 102.001 19.3271 100.483 22.1179 105.138C17.2882 103.028 18.8124 102.961 14.2558 105.507C16.1461 100.81 16.2879 102.328 13.4971 97.6733Z" fill="#FEFEFE"/>
</svg>
